<?xml version="1.0" standalone="no"?><!DOCTYPE svg PUBLIC "-//W3C//DTD SVG 1.1//EN" "http://www.w3.org/Graphics/SVG/1.1/DTD/svg11.dtd"><svg t="1561708940266" class="icon" viewBox="0 0 1024 1024" version="1.1" xmlns="http://www.w3.org/2000/svg" p-id="15672" xmlns:xlink="http://www.w3.org/1999/xlink" width="48" height="48"><defs><style type="text/css">@font-face { font-family: uc-nexus-iconfont; src: url("chrome-extension://pogijhnlcfmcppgimcaccdkmbedjkmhi/res/font_9qmmi8b8jsxxbt9.woff") format("woff"), url("chrome-extension://pogijhnlcfmcppgimcaccdkmbedjkmhi/res/font_9qmmi8b8jsxxbt9.ttf") format("truetype"); }
</style></defs><path d="M547.6352 213.7088V138.24A74.0352 74.0352 0 0 0 584.704 73.728 73.216 73.216 0 0 0 512.2048 0a73.216 73.216 0 0 0-72.6016 73.8304c0 27.5456 14.848 51.5072 36.7616 64.2048v75.6736h-258.048C97.6896 213.7088 0.1024 313.1392 0 435.8144v301.8752c0 122.6752 97.6896 222.208 218.2144 222.3104H805.888C926.3104 959.8976 1024 860.3648 1024 737.6896V435.8144c-0.1024-122.6752-97.792-222.0032-218.2144-222.208H547.6352zM318.976 501.1456a84.992 84.992 0 0 1 84.1728 85.6064 84.992 84.992 0 0 1-84.1728 85.7088 84.992 84.992 0 0 1-84.2752-85.7088 84.992 84.992 0 0 1 84.2752-85.6064z m385.6384 0a84.992 84.992 0 0 1 84.1728 85.6064c0 34.7136-20.48 65.9456-51.9168 79.1552a83.1488 83.1488 0 0 1-91.7504-18.432 86.8352 86.8352 0 0 1-18.2272-93.4912 84.1728 84.1728 0 0 1 77.7216-52.8384z" p-id="15673" fill="#4c97ff"></path></svg>