<?xml version="1.0" standalone="no"?><!DOCTYPE svg PUBLIC "-//W3C//DTD SVG 1.1//EN" "http://www.w3.org/Graphics/SVG/1.1/DTD/svg11.dtd"><svg t="1561708728766" class="icon" viewBox="0 0 1024 1024" version="1.1" xmlns="http://www.w3.org/2000/svg" p-id="10208" xmlns:xlink="http://www.w3.org/1999/xlink" width="48" height="48"><defs><style type="text/css">@font-face { font-family: uc-nexus-iconfont; src: url("chrome-extension://pogijhnlcfmcppgimcaccdkmbedjkmhi/res/font_9qmmi8b8jsxxbt9.woff") format("woff"), url("chrome-extension://pogijhnlcfmcppgimcaccdkmbedjkmhi/res/font_9qmmi8b8jsxxbt9.ttf") format("truetype"); }
</style></defs><path d="M928 576h-320c-19.2 0-32 12.8-32 32v320c0 19.2 12.8 32 32 32h320c19.2 0 32-12.8 32-32v-320c0-19.2-12.8-32-32-32zM416 576h-320c-19.2 0-32 12.8-32 32v320c0 19.2 12.8 32 32 32h320c19.2 0 32-12.8 32-32v-320c0-19.2-12.8-32-32-32zM928 64h-320c-19.2 0-32 12.8-32 32v320c0 19.2 12.8 32 32 32h320c19.2 0 32-12.8 32-32v-320c0-19.2-12.8-32-32-32zM416 64h-320c-19.2 0-32 12.8-32 32v320c0 19.2 12.8 32 32 32h320c19.2 0 32-12.8 32-32v-320c0-19.2-12.8-32-32-32z" p-id="10209" fill="#ffffff"></path></svg>