<?xml version="1.0" standalone="no"?><!DOCTYPE svg PUBLIC "-//W3C//DTD SVG 1.1//EN" "http://www.w3.org/Graphics/SVG/1.1/DTD/svg11.dtd"><svg t="1561285642177" class="icon" viewBox="0 0 1024 1024" version="1.1" xmlns="http://www.w3.org/2000/svg" p-id="5349" xmlns:xlink="http://www.w3.org/1999/xlink" width="48" height="48"><defs><style type="text/css">@font-face { font-family: uc-nexus-iconfont; src: url("chrome-extension://pogijhnlcfmcppgimcaccdkmbedjkmhi/res/font_9qmmi8b8jsxxbt9.woff") format("woff"), url("chrome-extension://pogijhnlcfmcppgimcaccdkmbedjkmhi/res/font_9qmmi8b8jsxxbt9.ttf") format("truetype"); }
</style></defs><path d="M612.550267 520.237319 721.176979 411.61061C727.729401 405.058188 727.891698 394.130005 721.251499 387.489806 714.805501 381.043808 703.812052 380.882975 697.130697 387.564329L588.503985 496.191037 479.877277 387.564329C473.324855 381.011907 462.396672 380.849609 455.756472 387.489806 449.310474 393.935807 449.149641 404.929256 455.830996 411.61061L564.457704 520.237319 455.830996 628.864031C449.278573 635.416453 449.116276 646.344636 455.756472 652.984832 462.202474 659.430833 473.195923 659.591666 479.877277 652.910312L588.503985 544.2836 697.130697 652.910312C703.68312 659.462735 714.611302 659.625032 721.251499 652.984832 727.6975 646.538834 727.858333 635.545385 721.176979 628.864031L612.550267 520.237319ZM146.461535 536.232844C133.127804 522.849413 133.320413 500.957259 146.461535 487.767156L382.330505 251.019006C388.980449 244.344274 402.116649 238.933333 411.344756 238.933333L785.296988 238.933333C841.723744 238.933333 887.466667 284.557007 887.466667 341.656835L887.466667 682.343165C887.466667 739.075789 841.961284 785.066667 785.296988 785.066667L411.344756 785.066667C401.970572 785.066667 389.179614 779.855633 382.330505 772.980992L146.461535 536.232844Z" p-id="5350" fill="#707070"></path></svg>