<?xml version="1.0" standalone="no"?><!DOCTYPE svg PUBLIC "-//W3C//DTD SVG 1.1//EN" "http://www.w3.org/Graphics/SVG/1.1/DTD/svg11.dtd"><svg t="1561708881758" class="icon" viewBox="0 0 1024 1024" version="1.1" xmlns="http://www.w3.org/2000/svg" p-id="14000" xmlns:xlink="http://www.w3.org/1999/xlink" width="48" height="48"><defs><style type="text/css">@font-face { font-family: uc-nexus-iconfont; src: url("chrome-extension://pogijhnlcfmcppgimcaccdkmbedjkmhi/res/font_9qmmi8b8jsxxbt9.woff") format("woff"), url("chrome-extension://pogijhnlcfmcppgimcaccdkmbedjkmhi/res/font_9qmmi8b8jsxxbt9.ttf") format("truetype"); }
</style></defs><path d="M851 64.2H171.2c-59.3 0-107.9 48.6-107.9 107.9v679.8c0 59.3 48.6 107.9 107.9 107.9H851c59.3 0 107.9-48.6 107.9-107.9V172.1c0-59.4-48.5-107.9-107.9-107.9z m-339.9 401c0 4.4-3.6 8-8 8H399.6l-7.1 30.8-0.8 3.6c-25.3 110.6-37.6 162.2-49.2 204.3-20 72.5-67 114.9-134.9 120.8-2.8 0.2-5.6 0.4-8.4 0.5-4.4 0.2-8.1-3.3-8.3-7.7V761c0-4.2 3.3-7.7 7.5-8 4.8-0.3 8.6-0.7 11.2-1.2 28.4-5.3 45.6-24.1 55.8-61.2 11.2-40.5 23.4-91.7 48.3-200.9l0.8-3.5 3-13h-78.6c-4.4 0-8-3.6-8-8v-64c0-4.4 3.6-8 8-8h97c9.3-39.9 15.1-63.8 21.6-89.4 23.4-92 104.1-125.4 224.9-104.5 2.3 0.4 5.2 0.9 8.9 1.6 4.3 0.8 7.2 5 6.4 9.4v0.2l-13.1 62.7c-0.9 4.3-5 7.1-9.3 6.2-3.7-0.7-7.3-1.4-11-2-80.4-13.6-118.2 3.1-129.1 46.1-5.3 20.8-10.2 40.7-17 69.7h84.9c4.4 0 8 3.6 8 8v64z m320.2 0c0 4.4-3.6 8-8 8H800l-74.5 82.3 39.9 77.8h17.8c4.4 0 8 3.6 8 8v64c0 4.4-3.6 8-8 8h-66.7L668.1 619l-85.5 94.4H519c-4.4 0-8-3.6-8-8v-64c0-4.4 3.6-8 8-8h28.1l81.9-90.5-35.7-69.6h-34.2c-4.4 0-8-3.6-8-8v-64c0-4.4 3.6-8 8-8h83.1l44.3 86.3 78.1-86.3h58.7c4.4 0 8 3.6 8 8v63.9z" p-id="14001" fill="#ff6680"></path></svg>