<?xml version="1.0" standalone="no"?><!DOCTYPE svg PUBLIC "-//W3C//DTD SVG 1.1//EN" "http://www.w3.org/Graphics/SVG/1.1/DTD/svg11.dtd"><svg t="1561708409476" class="icon" viewBox="0 0 1024 1024" version="1.1" xmlns="http://www.w3.org/2000/svg" p-id="2889" xmlns:xlink="http://www.w3.org/1999/xlink" width="48" height="48"><defs><style type="text/css">@font-face { font-family: uc-nexus-iconfont; src: url("chrome-extension://pogijhnlcfmcppgimcaccdkmbedjkmhi/res/font_9qmmi8b8jsxxbt9.woff") format("woff"), url("chrome-extension://pogijhnlcfmcppgimcaccdkmbedjkmhi/res/font_9qmmi8b8jsxxbt9.ttf") format("truetype"); }
</style></defs><path d="M910.222222 1024H113.777778a113.777778 113.777778 0 0 1-113.777778-113.777778V113.777778a113.777778 113.777778 0 0 1 113.777778-113.777778h796.444444a113.777778 113.777778 0 0 1 113.777778 113.777778v796.444444a113.777778 113.777778 0 0 1-113.777778 113.777778zM455.111111 284.444444H398.222222V227.555556a56.888889 56.888889 0 0 0-113.777778 0v56.888888H227.555556a56.888889 56.888889 0 0 0 0 113.777778h56.888888v56.888889a56.888889 56.888889 0 0 0 113.777778 0V398.222222h56.888889a56.888889 56.888889 0 0 0 0-113.777778z m56.888889 455.111112H455.111111v-56.888889h56.888889v-113.777778H398.222222v56.888889H341.333333v-56.888889H227.555556v113.777778h56.888888v56.888889H227.555556v113.777777h113.777777v-56.888889h56.888889v56.888889h113.777778v-113.777777z m284.444444-455.111112h-170.666666a56.888889 56.888889 0 0 0 0 113.777778h170.666666a56.888889 56.888889 0 0 0 0-113.777778z m0 341.333334h-113.777777a56.888889 56.888889 0 1 0-56.888889-56.888889 56.888889 56.888889 0 0 0 56.888889 56.888889h-56.888889a56.888889 56.888889 0 0 0 0 113.777778h113.777778a56.888889 56.888889 0 1 0 56.888888 56.888888 56.888889 56.888889 0 0 0-56.888888-56.888888h56.888888a56.888889 56.888889 0 0 0 0-113.777778z" p-id="2890" fill="#59c059"></path></svg>